<svg xmlns="http://www.w3.org/2000/svg" viewBox="0 0 180 116">
  <style type="text/css">
    .st0{fill:#F1F2F2;}
    .st1{fill:#0C1A40;}
    .st2{fill:#007DC2;}
    .st3{fill:#076BA9;}
    .st4{fill:#00B2EF;}
  </style>
  <g>
    <g>
      <path class="st0" d="M15.2,263.9l390.8-2.7l-390.8-2.7c-1.5,0-2.7,1.2-2.7,2.7S13.7,263.9,15.2,263.9
			C15.2,263.9,15.2,263.9,15.2,263.9z"/>
    </g>
  </g>
  <path class="st1" d="M14.5,246c0.7,4.6,1.8,9.7,2.7,12.6c0.3,1,0.6,1.7,0.8,2c0.6,0,2.1-0.1,5.9-0.1c6.9,0,17.6,0.1,21.7,0.2
	c-0.1-0.6-0.4-1.2-0.7-2c-1.3-2.8-4.7-6.6-12.9-8.6l-1.4-0.3l0.4-1.4c0.1-0.3,10-33.2,10.6-41.7l0.1-1.2l1.2-0.1
	c0.2,0,20.6-1.2,38.8-9.1l0.3-0.1c8.5-3.8,15.2-8.4,19.9-13.8v-0.1l1.1-1.1l0,0l1.6-1.6l0.1,2.4l0,0v0c2.8,1.4,5.8,2.8,8.8,4l1,0.4
	L110,232l45.3,27.6l1.5,0.9h31.4c-0.1-0.2-0.1-0.4-0.2-0.7c-1.3-3.9-5.9-11.6-22.5-11.6h-0.5l-30.9-26.8l0.9-1
	c0.2-0.2,19.9-23.7,28.2-42.2l2.6,1.1c-0.2,0.4-0.3,0.8-0.5,1.2l5.1,1.2l1.5,0.4c0.5,0.2,1,0.3,1.5,0.5c7.9,2.8,14.4,7.1,21.2,11.5
	c2.1,1.4,4.3,2.8,6.6,4.3c6.9,4.3,14.8,6.1,20.3,6.8h0.1c3.5,0.4,5.9,0.5,6.6,0.5l1.6,0l-1,26.3l15.6,28.1h21.8
	c-0.2-1.5-0.7-4-2.7-6.1c-2.3-2.4-5.8-3.6-10.5-3.6h-1l-5.9-20l0.1-0.4c0.1-0.4,3.1-9.1,9.8-19.7l0.5-0.8l0.9,0.2
	c0.6,0.1,1.2,0.2,1.8,0.3h1.3v0.1c1,0.1,1.9,0.2,2.9,0.2c0.2,0,0.4,0,0.5,0c0.5,0,1,0,1.5-0.1c0.6,0,1.1-0.1,1.6-0.1
	c0.3,0,0.6-0.1,1-0.1c0.6-0.1,1.3-0.2,1.9-0.3c1.4-0.3,2.9-0.6,4.8-1.2l1.8-0.9l0.2,2.1c0.8,11.1,2.1,18.9,3.6,21.5
	c2.8,4.7,15.7,24.8,18.8,29.6c0.1,0.2,0.2,0.3,0.3,0.4h19c0-0.1-0.1-0.2-0.2-0.3c-2.4-4.2-5.7-7.9-7.8-10.1c0,0,0,0,0,0l-1.7-1.7
	c-0.2-0.2-0.4-0.4-0.6-0.6c0,0,0,0,0,0c-5.7-5.6-14.6-15.4-15.3-22c-0.6-5.2,1-14.5,2.5-21.3l0.3-1.2l0.7,0l0.5,0
	c0.7,0,1.4,0.1,1.9,0.2l0.1,0c0.4,0.1,0.8,0.2,1.2,0.4c1.2,0.5,2.6,1.2,4.1,2.1l0.4,0.2l2.9,2.2l1.7-2.6v4.9l-0.1,0.1
	c-0.7,3.4-1,7.1-1.2,10.9c-0.2,6.7,0.3,13.7,1.6,19.4c0.1,0.3,0.1,0.6,0.2,0.8c0,0.1,0,0.1,0,0.1c0,0,0,0.1,0,0.1c0,0,0,0.1,0,0.1v0
	c0.3,1.2,0.6,2.3,1,3.3c0,0,0,0.1,0,0.1c0.1,0.3,0.2,0.5,0.3,0.8l0.1,0.2v0.3c1.5,5.1,11.8,5.8,11.8,5.8l0.6,0
	c0.1,0,2.8,0.3,6.1,0.3c5.1,0,8.8-0.8,10-2.1c0.4-0.4,0.5-0.8,0.5-1.3l-0.3-6.5c-0.1-0.6-0.6-3-1-6.4c-0.3-2.5,1.1-3,2.1-3.2
	c0.1,0,0.3,0,0.3-0.1c0,0,0.1-0.2,0.2-0.9l-0.6-9.3l2.7-0.4c1.2,4.7,2.5,7.9,3.5,9.3c0.8,1.3,1.6,3.4,2.5,5.6
	c0.3,0.8,0.6,1.6,0.9,2.3c0.6,1.4,1,2.2,1.2,2.6c0.2-0.1,0.5-0.3,0.8-0.3h0.7l0.5,0.5c0.5,0.6,0.4,1.2,0.1,2.5
	c-0.7,4-1.1,8.7,2.5,11.1l0.1,0.1l0.1,0.1c0.2,0.1,0.5,0.3,0.8,0.4c2.1,1,4.9,1.5,8.4,1.5c2,0,4.3-0.2,6.6-0.5
	c0.5-0.1,1-0.1,1.5-0.2c0.8-0.1,1.5-0.3,2.2-0.4c0.7-0.1,1.3-0.3,1.9-0.4c0.3-0.1,1.2-0.3,1.2-0.3c0.4-0.1,0.7-0.2,1-0.3
	c0.6-0.2,1.1-0.5,1.7-0.8c1.7-0.8,3.7-1.9,7.9-1.9c0.5,0,1,0,1.5,0.1h0.4c4.3,0,8.8-3.7,9.9-6.2c0.1-0.3,0.3-0.9,0.1-1.2
	c-0.9-0.9-2.1-1.6-3.2-2.3c-2-1.2-4.1-2.4-4.8-4.9l-0.8-3c-1-1.5-8.1-12.8-12.1-17L380,220v-0.4h0c-0.1-0.2-0.2-0.7-0.2-1.3
	c-0.1-1.3-0.1-2.8,0.2-4.3c0.4-2,1.2-4.2,2.3-6.4c0.6-1.2,1.3-2.3,1.8-3.4c1.5-2.7,2.8-4.9,3.2-7.5c0.4-2.3,0.2-4.9-0.6-8l-0.5-1.8
	c-1.1-4.4-2.4-9.4-4.6-14.1l-0.1-0.2c-3-5.7-13.9-8.8-24.5-11.8c-8.3-2.4-16.2-4.6-21.1-8.1c-3.8-3-7.8-6.3-11.9-9.9
	c-0.4-0.4-0.8-0.7-1.3-1.1l-0.8-0.7c-4-3.6-8.5-7.7-13.7-12.7l0,0.1l-1-1c-1.6-1.6-3.1-3-4.4-4.4l-1.1-1c-3-3-5.7-5.8-6.7-6.9
	c-0.8-0.9-1.6-2.1-2.5-3.5c-4.6-6.7-12.3-17.8-28.1-17.8c-4.9,0-10.4,0.3-16.2,0.6c-6.8,0.3-14.5,0.7-22.5,0.7
	c-15.6,0-28.7-1.5-41.3-4.5c-2.6-0.6-5.1-1.2-7.5-1.8c0,0,0,0,0,0c-13.6-3.2-24.8-5.4-33.9-6.6c-5.8-0.8-10.7-1.2-14.7-1.2
	c-1.2,0-2.5-0.1-3.9-0.1c-1.7-0.1-3.6-0.2-5.7-0.2c-7.5,0-19.7,1.2-39.5,11.6l-0.2,0.1l-0.2,0c-1.7,0.3-3.2,0.4-4.6,0.4
	c-0.4,0-0.7,0-1,0c-3.9-0.1-7.1-1.4-9.4-3.6c-9.5-9.3-18.6-18-14.4-25.5c0.5-0.9,1.3-2.4,2.3-4.3c5.1-10.3,15.2-33.9,7.8-48
	c0.1,3.5-0.7,8.3-4,13.8c-0.5,0.9-1.1,1.8-1.7,2.8c-3.6,5.9-8.6,14-12.3,22.8c-3.3,7.9-4.9,14.9-4.8,20.8c0,2.5,0.4,4.9,1.1,7.1
	c2.7,8.9,5.1,10.9,7.7,12.9l0.6,0.5l0,0.1c0.7,0.8,1.3,1.3,2,1.8l0.1,0.1l0.1,0c2.3,2.5,4,6,5.6,11.2c1,3.3,1.4,6.4,1.3,9.4l0,0.2
	v0.1l-0.1,0.2c-0.1,0.3-0.2,0.6-0.3,0.9c-1.2,4-1.6,8.2-1.1,12.6c0,0.4,0.1,0.7,0.2,1.1l0,0.2l0,0.1v0.1c1.4,9.6,3.4,20.4,3.7,22.5
	l0,0.2c1,6.6,1.4,11.9-2.4,15.5c-0.9,0.9-2.6,2.3-4.6,4c-7.3,6.2-22.3,19.2-23.8,24.2C25,202.6,15.4,242.3,14.5,246z"/>
  <rect x="83.4" y="111.1" transform="matrix(-1 -4.490109e-11 4.490109e-11 -1 183.7342 241.5663)" class="st2" width="17" height="19.4"/>
  <rect x="134" y="133.5" transform="matrix(-1 -4.490109e-11 4.490109e-11 -1 284.9751 286.4274)" class="st2" width="17" height="19.4"/>
  <path class="st2" d="M309.3,241.9h15.9v-19.4h-17.5C307.4,229.3,308,236.2,309.3,241.9z"/>
  <rect x="248.2" y="155.5" transform="matrix(-1 -4.500812e-11 4.500812e-11 -1 513.2592 330.4728)" class="st2" width="17" height="19.4"/>
  <rect x="231.2" y="155.5" transform="matrix(-1 -4.490109e-11 4.490109e-11 -1 479.3511 330.4728)" class="st2" width="17" height="19.4"/>
  <rect x="358.6" y="177.4" transform="matrix(-1 -4.490109e-11 4.490109e-11 -1 734.1252 374.1687)" class="st2" width="17" height="19.4"/>
  <rect x="127.5" y="177.4" transform="matrix(-1 -4.490109e-11 4.490109e-11 -1 272.0211 374.1687)" class="st2" width="17" height="19.4"/>
  <rect x="243.7" y="111.1" transform="matrix(-1 -4.495438e-11 4.495438e-11 -1 504.4035 241.5663)" class="st2" width="17" height="19.4"/>
  <g>
    <path class="st3" d="M377,187.1c0,5.1,1.7,7.9,5,7.9c3.4,0,5.3-2.8,4.2-7.9c-1.1-5.1-3.4-7.9-5.5-7.9
		C378.6,179.2,377,182,377,187.1z M383.9,187.2c0.7,3.9-0.1,5.6-1.9,5.6c-1.7,0-2.5-1.8-2.7-5.6c-0.1-3.9,0.4-5.6,1.6-5.6
		C382.2,181.5,383.2,183.3,383.9,187.2z"/>
  </g>
  <path class="st4" d="M361.1,187.1c0,5.1,2.1,7.9,6,7.9c3.9,0,6-2.8,6-7.9c0-5.1-2.1-7.9-6-7.9C363.2,179.2,361.1,182,361.1,187.1z
	 M364.1,187.1c0-3.9,1-5.6,3-5.6c2,0,3,1.8,3,5.6c0,3.9-1,5.6-3,5.6C365,192.8,364.1,191,364.1,187.1z"/>
  <path class="st3" d="M345.1,187.1c0,5.1,2.1,7.9,6,7.9c3.8,0,6-2.8,6-7.9c0-5.1-2.1-7.9-6-7.9C347.2,179.2,345.1,182,345.1,187.1z
	 M348,187.1c0-3.9,1-5.6,3-5.6c2,0,3,1.8,3,5.6c0,3.9-1,5.6-3,5.6C349,192.8,348,191,348,187.1z"/>
  <path class="st3" d="M313,187.1c0,5.1,2.1,7.9,6,7.9c3.8,0,6-2.8,6-7.9c0-5.1-2.1-7.9-6-7.9C315.1,179.2,313,182,313,187.1z
	 M315.9,187.1c0-3.9,1-5.6,3-5.6c2,0,3,1.8,3,5.6c0,3.9-1,5.6-3,5.6C316.9,192.8,315.9,191,315.9,187.1z"/>
  <path class="st3" d="M280.9,187.1c0,5.1,2.1,7.9,6,7.9c3.8,0,6-2.8,6-7.9c0-5.1-2.1-7.9-6-7.9C283,179.2,280.9,182,280.9,187.1z
	 M283.8,187.1c0-3.9,1-5.6,3-5.6c2,0,3,1.8,3,5.6c0,3.9-1,5.6-3,5.6C284.8,192.8,283.8,191,283.8,187.1z"/>
  <path class="st3" d="M248.8,187.1c0,5.1,2.1,7.9,6,7.9c3.8,0,6-2.8,6-7.9c0-5.1-2.1-7.9-6-7.9C250.9,179.2,248.8,182,248.8,187.1z
	 M251.8,187.1c0-3.9,1-5.6,3-5.6c2,0,3,1.8,3,5.6c0,3.9-1,5.6-3,5.6C252.8,192.8,251.8,191,251.8,187.1z"/>
  <path class="st3" d="M232.8,187.1c0,5.1,2.1,7.9,6,7.9c3.8,0,6-2.8,6-7.9c0-5.1-2.1-7.9-6-7.9C234.9,179.2,232.8,182,232.8,187.1z
	 M235.7,187.1c0-3.9,1-5.6,3-5.6c2,0,3,1.8,3,5.6c0,3.9-1,5.6-3,5.6C236.7,192.8,235.7,191,235.7,187.1z"/>
  <path class="st3" d="M216.7,187.1c0,5.1,2.1,7.9,6,7.9c3.9,0,6-2.8,6-7.9c0-5.1-2.1-7.9-6-7.9C218.9,179.2,216.7,182,216.7,187.1z
	 M219.7,187.1c0-3.9,1-5.6,3-5.6c2,0,3,1.8,3,5.6c0,3.9-1,5.6-3,5.6C220.7,192.8,219.7,191,219.7,187.1z"/>
  <path class="st3" d="M200.7,187.1c0,5.1,2.1,7.9,5.9,7.9c3.9,0,6-2.8,6-7.9c0-5.1-2.1-7.9-6-7.9C202.8,179.2,200.7,182,200.7,187.1z
	 M203.6,187.1c0-3.9,1-5.6,3-5.6c2,0,3,1.8,3,5.6c0,3.9-1,5.6-3,5.6C204.6,192.8,203.6,191,203.6,187.1z"/>
  <g>
    <path class="st3" d="M184.7,182.8c0,0.9,1.9,4.6,5.6,6.8c3.7,2.2,6.3,1.3,6.3-3.2c0-4.5-2.1-7.3-6-7.3
		C186.8,179.2,184.7,181.9,184.7,182.8z M193.4,185.4c-0.1,2.6-1.2,3.5-3.1,2.3c-1.9-1.1-2.8-2.8-2.8-4.1c0-1.3,1-2.5,3-2.5
		C192.6,181.2,193.5,182.7,193.4,185.4z"/>
  </g>
  <g>
    <path class="st3" d="M145.5,187.1c0,5.1,2.1,7.9,4.2,7.9c2.2,0,6.7-2.9,7.5-8c0.7-5.1-1.9-7.9-5.7-7.9
		C147.6,179.2,145.5,182,145.5,187.1z M154.1,187.1c-0.5,3.9-2.2,5.6-3.7,5.7c-1.4,0-1.9-1.8-1.9-5.6c0.1-3.9,0.9-5.6,2.9-5.6
		C153.5,181.5,154.6,183.2,154.1,187.1z"/>
  </g>
  <path class="st3" d="M70.4,187.1c0,5.1,2.1,7.9,6,7.9c3.9,0,6-2.8,6-7.9c0-5.1-2.1-7.9-6-7.9C72.5,179.2,70.4,182,70.4,187.1z
	 M73.3,187.1c0-3.9,1-5.6,3-5.6c2,0,3,1.8,3,5.6c0,3.9-1,5.6-3,5.6C74.3,192.8,73.3,191,73.3,187.1z"/>
  <path class="st3" d="M54.3,187.1c0,5.1,2.1,7.9,6,7.9c3.8,0,6-2.8,6-7.9c0-5.1-2.1-7.9-6-7.9C56.4,179.2,54.3,182,54.3,187.1z
	 M57.3,187.1c0-3.9,1-5.6,3-5.6c2,0,3,1.8,3,5.6c0,3.9-1,5.6-3,5.6C58.3,192.8,57.3,191,57.3,187.1z"/>
  <g>
    <path class="st3" d="M37.7,186.9c-1,5.2,1.7,8.1,5.6,8.1c3.8,0,6-2.8,6-7.9c0-5.1-2-7.9-3.6-7.9C44,179.2,38.7,181.7,37.7,186.9z
		 M46.1,187.1c-0.1,3.9-0.9,5.7-2.9,5.7c-2,0-3.2-1.8-2.5-5.8c0.7-3.9,2.7-5.6,3.9-5.6C45.8,181.5,46.2,183.2,46.1,187.1z"/>
  </g>
  <g>
    <path class="st3" d="M376.2,232.4c0,5.1,2.2,7.9,8.3,7.9c6.2,0,7.8-2.6,4.5-7.7c-3.3-5.1-7.8-8.1-9.3-8.1
		C378.2,224.5,376.2,227.3,376.2,232.4z M385.8,232.6c2.1,3.9,1.3,5.5-1.7,5.5c-3,0-4.3-1.8-4.7-5.6c-0.4-3.9,0-5.6,1.2-5.6
		C381.8,226.8,383.7,228.7,385.8,232.6z"/>
  </g>
  <g>
    <path class="st3" d="M333,224.6c4-0.1,6.2,2.7,6.2,7.8c0,5.1-2.1,7.9-5.3,7.9c-3.2,0-7.5-2.3-7.5-7.4
		C326.4,227.8,329,224.7,333,224.6z M333,226.9c-2.1,0.1-3.5,2-3.5,5.9c0,3.9,2.7,4.9,4.4,5c1.7,0.1,2.2-1.5,2.2-5.3
		C336.1,228.6,335.1,226.9,333,226.9z"/>
  </g>
  <g>
    <path class="st3" d="M232.4,232.6c-0.1,5.2,3.7,7.8,7,7.8c3.3,0,4.2-3.4,4.7-8.3c0.4-4.9-1.4-7.6-5.3-7.6
		C235,224.5,232.5,227.3,232.4,232.6z M241.1,232.2c-0.3,3.8-0.7,5.7-2.5,5.8c-1.8,0.1-3.4-1.6-3.3-5.5c0.1-3.9,1.3-5.7,3.3-5.7
		C240.7,226.7,241.4,228.4,241.1,232.2z"/>
  </g>
  <g>
    <path class="st3" d="M119.9,233.1c1.2,5.5,7.1,7.3,8.3,7.3c1.2,0,3.2-2.8,3.2-7.9c0-5.1-2.1-7.9-6-7.9
		C121.5,224.5,118.7,227.5,119.9,233.1z M128.2,232.6c0.1,4-0.2,5.7-1.2,5.8c-1.1,0.1-3.2-1.3-4-5.4c-0.8-4.1,0.4-6.1,2.4-6.1
		C127.3,226.8,128.1,228.6,128.2,232.6z"/>
  </g>
  <g>
    <path class="st3" d="M22.3,232.4c0,5.1,2.1,7.9,4.8,7.9c2.7,0,5.7-2.9,7.1-8c1.4-5.2,0-7.9-4.9-7.9
		C24.5,224.5,22.3,227.3,22.3,232.4z M31.2,232.3c-0.9,3.9-2.2,5.7-3.8,5.7c-1.6,0-2.3-1.8-2.2-5.7c0.2-3.9,1.3-5.6,3.7-5.6
		C31.4,226.7,32.1,228.4,31.2,232.3z"/>
  </g>
  <path class="st3" d="M373.8,217.7c3.1,0,5.4-3.1,7-7.9c1.6-4.9,0.6-7.9-3.2-7.9c-3.8,0-6.6,3-7.4,7.9
	C369.2,214.7,370.6,217.7,373.8,217.7z M372.6,209.8c0.9-3.8,2.6-5.6,4.6-5.6c2,0,2,1.9,0.8,5.6c-1.2,3.7-2.3,5.5-4,5.5
	C372.3,215.3,371.7,213.5,372.6,209.8z"/>
  <path class="st3" d="M356.5,209.8c0,5.1,2.4,7.9,5.7,7.9c3.4,0,4.9-2.9,5.3-7.9c0.5-5-1.3-7.9-5.1-7.9
	C358.7,201.8,356.5,204.7,356.5,209.8z M359.5,209.8c0-3.9,1-5.6,3-5.6c2,0,2.8,1.8,2.6,5.6c-0.2,3.8-1,5.6-2.8,5.6
	C360.5,215.4,359.5,213.6,359.5,209.8z"/>
  <path class="st3" d="M340.5,209.8c0,5.1,2.1,7.9,6,7.9c3.8,0,6-2.8,6-7.9c0-5.1-2.1-7.9-6-7.9C342.6,201.8,340.5,204.7,340.5,209.8z
	 M343.5,209.8c0-3.9,1-5.6,3-5.6c2,0,3,1.7,3,5.6c0,3.9-1,5.6-3,5.6C344.4,215.4,343.5,213.6,343.5,209.8z"/>
  <path class="st3" d="M309.7,209.8c0,5.1,1,7.9,4.8,7.9c3.8,0,6.6-2.8,6.6-7.9c0-5.1-2.8-7.9-6.7-7.9
	C310.5,201.8,309.7,204.7,309.7,209.8z M314.6,204.1c2,0,3.6,1.7,3.7,5.6c0,3.9-1.6,5.6-3.6,5.6c-2,0-2-1.8-2.1-5.6
	C312.5,205.9,312.6,204.1,314.6,204.1z"/>
  <g>
    <path class="st3" d="M277.3,209.8c0.3,5.1,2.9,7.9,5.9,7.9c3,0,5.1-2.8,5.1-7.9c0-5.1-2.1-7.9-5.7-7.9
		C279.1,201.8,276.9,204.7,277.3,209.8z M282.6,204.1c1.9,0,2.8,1.8,2.8,5.6c0,3.9-0.8,5.6-2.4,5.6c-1.6,0-2.7-1.8-2.9-5.6
		C279.9,205.9,280.8,204.1,282.6,204.1z"/>
  </g>
  <g>
    <path class="st3" d="M120.3,209.8c0.3,5.1,2.9,7.9,5.9,7.9c3,0,5.1-2.8,5.1-7.9c0-5.1-2.1-7.9-5.7-7.9
		C122.2,201.8,120,204.7,120.3,209.8z M125.7,204.1c1.9,0,2.8,1.8,2.8,5.6c0,3.9-0.8,5.6-2.4,5.6c-1.7,0-2.7-1.8-2.9-5.6
		C122.9,205.9,123.9,204.1,125.7,204.1z"/>
  </g>
  <g>
    <path class="st3" d="M243.3,209.8c0,5.1,2.1,7.9,3.8,7.9c1.8,0,5.9-2.8,8-7.9c2.2-5.1-0.3-8-5-8
		C245.4,201.8,243.3,204.7,243.3,209.8z M246.3,209.8c0.3-3.9,1.3-5.6,3.7-5.6c2.4,0,3.4,1.8,2,5.7s-3.1,5.6-4.3,5.6
		S246,213.7,246.3,209.8z"/>
  </g>
  <g>
    <path class="st3" d="M234.5,217.7c3,0,5.1-2.8,5.1-7.9c0-5.1-2.1-7.9-4.7-7.9c-2.6,0-4.7,2.8-5.1,7.9
		C229.4,214.9,231.5,217.7,234.5,217.7z M232.4,209.8c0.2-3.9,1.1-5.6,2.4-5.6c1.4,0,2.2,1.7,2.1,5.6c-0.1,3.9-0.9,5.6-2.5,5.6
		C232.9,215.4,232.2,213.6,232.4,209.8z"/>
  </g>
  <g>
    <path class="st3" d="M31,217.7c5.8,0,8-2.8,8-7.9c0-5.1-2.1-7.9-6-7.9c-3.8,0-6.5,2.8-7.8,7.8C23.9,214.8,25.3,217.7,31,217.7z
		 M28.4,209.7c0.9-3.9,2.2-5.6,4.3-5.6c2.2,0,3.2,1.7,3,5.6c-0.2,3.9-1.5,5.6-4.5,5.6C28.5,215.4,27.6,213.6,28.4,209.7z"/>
  </g>
  <g>
    <g>
      <path class="st3" d="M39.3,77.7c1.3,5.2,4.8,7.8,9,7.8c4.2,0,4-1.9,2.6-7.4c-1.4-5.5-3.1-8.5-6.8-8.5
			C40.4,69.7,38.1,72.5,39.3,77.7z M48.1,78.1c1.1,4.1,1.2,5.5-0.9,5.5c-2.1-0.1-4-1.7-5-5.7c-1-4,0-5.8,2-5.8
			C46.1,72,47,74,48.1,78.1z"/>
    </g>
  </g>
  <g>
    <g>
      <path class="st3" d="M49,36.5c-2.7,4.8-1.9,7.8,3.1,7.8c5,0,7.1-2.8,7.1-7.9c0-5.1-2-7.9-2.7-7.9C55.8,28.4,51.7,31.7,49,36.5z
			 M56.5,36.4c-0.3,3.8-1.5,5.6-3.8,5.6c-2.3,0-2.7-1.8-0.9-5.5c1.8-3.7,3.3-5.6,4-5.6C56.4,30.8,56.8,32.6,56.5,36.4z"/>
    </g>
  </g>
  <path class="st2" d="M145.6,82.3l0,27h33.9l0-20.1c0,0,0,0,0,0C165.9,85.9,154.7,83.5,145.6,82.3z"/>
  <g>
    <g>
      <path class="st3" d="M274.8,100.8c0.5,3.2,3.1,5.2,7.2,5.2c4.1,0,6-0.2,5.3-1c-0.6-0.7-3.8-4.4-7.7-7
			C275.7,95.5,274.3,97.6,274.8,100.8z M280.2,99.5c2.1,1.2,3.6,2.8,4.1,4.1c0.5,1.2-0.4,1.6-2.5,1.3c-2.1-0.2-3.3-1.3-3.8-3.5
			C277.5,99.3,278.1,98.4,280.2,99.5z"/>
      <path class="st3" d="M260.9,100c0,3.4,2.3,6,6.5,6c4.2,0,6.5-2.3,6.1-5.8c-0.4-3.5-3-6.6-6.8-6.6C262.8,93.7,260.9,96.7,260.9,100
			z M264,100c-0.1-2.6,0.8-4.2,2.8-4.2c2.1,0,3.3,1.6,3.5,4.3c0.2,2.7-0.8,4-3,4C265.1,104.1,264.1,102.6,264,100z"/>
      <path class="st3" d="M244.7,100.2c0,3.1,2.1,5.9,6,5.9c3.9,0,6-2.7,6-6c0-3.2-2.1-6-6-5.9C246.9,94.2,244.7,97.1,244.7,100.2z
			 M247.7,100.1c0-2.4,1-3.9,3-3.9c2,0,3,1.4,3,3.8c0,2.4-1,3.9-3,3.9C248.7,104,247.7,102.5,247.7,100.1z"/>
      <path class="st3" d="M228.7,100.5c0,2.8,2.1,5.5,6,5.5c3.8,0,6-2.8,6-5.8s-2.1-5.6-6-5.5C230.8,95,228.7,97.8,228.7,100.5z
			 M231.6,100.5c0-2.1,1-3.6,3-3.6c2-0.1,3,1.3,3,3.5c0,2.2-1,3.7-3,3.7C232.6,104,231.6,102.6,231.6,100.5z"/>
      <path class="st3" d="M196.6,99.3c0,4,2.2,6.7,6,6.7c3.9,0,6-2.6,5.9-5.8c0-3.2-2.2-6-6-6.6C198.6,93,196.5,95.3,196.6,99.3z
			 M199.5,99.6c0-2.9,1-4.2,3-3.9c2,0.3,3,1.8,3.1,4.4c0,2.6-1,4-3,4C200.5,104,199.5,102.5,199.5,99.6z"/>
      <path class="st4" d="M148.5,95.4c0,8.7,2.1,11.8,5.9,11.8c3.8,0,5.9-3,5.8-10.8c-0.1-7.8-2.1-11.2-5.9-11.8
			C150.7,83.9,148.6,86.6,148.5,95.4z M151.5,95.6c0-6.5,1-8.7,3-8.4c2,0.3,2.9,2.7,3,8.9c0,6.1-0.9,8.4-3,8.4
			C152.5,104.4,151.5,102.1,151.5,95.6z"/>
      <path class="st3" d="M116.4,93.4c0,9.5,2.2,12.7,6,12.7c3.8,0,6-3.1,6-12.6c0-9.5-2.1-12.7-6-12.7
			C118.5,80.6,116.4,83.9,116.4,93.4z M119.4,93.3c0-7.3,1-9.8,3-9.8c2,0,3,2.5,3,9.8s-1,9.8-3,9.8
			C120.3,103.2,119.4,100.7,119.4,93.3z"/>
      <path class="st3" d="M100.1,95.2c0.2,7.6,2.4,10.9,6.2,10.9c3.9,0,6-3.3,5.9-12.4c-0.1-9.2-2.3-12.1-6.3-11.1
			C102,83.5,99.9,87.5,100.1,95.2z M106,85.4c2.1-0.5,3.1,1.8,3.2,8.5c0.1,6.7-0.9,9.2-3,9.2c-2,0-3.1-2.3-3.2-8.5
			C103,88.6,103.9,85.9,106,85.4z"/>
      <path class="st3" d="M84.4,98.5c0,4.9,2.1,7.6,5.9,7.6c3.8,0,5.9-3.2,5.7-10.1c-0.2-7-2.4-9.3-6.1-7.6
			C86.3,90,84.4,93.6,84.4,98.5z M87.2,97.8c0-4,0.8-6.3,2.8-7.1c1.9-0.8,3,0.9,3.1,5.8c0.1,4.9-0.8,7-2.8,7.1
			C88.2,103.7,87.2,101.9,87.2,97.8z"/>
      <path class="st3" d="M69.4,99.1c0.9,4.5,3,7,6.2,7c3.1,0,5-2.5,4.9-7c-0.1-4.5-2-6.4-5.8-6.5C70.8,92.5,68.5,94.6,69.4,99.1z
			 M74.6,94.5c2,0,2.9,1.4,3.1,4.7c0.2,3.3-0.6,4.8-2.3,4.8c-1.7,0-2.8-1.5-3.3-4.9C71.6,95.9,72.6,94.5,74.6,94.5z"/>
      <path class="st3" d="M53.9,98.1c1.8,5.1,5.1,7.9,8.5,7.9c3.4,0,4.3-2.6,3.1-7.3c-1.2-4.7-3.3-7.7-7.3-8.2
			C54.4,90.1,52.1,93,53.9,98.1z M58.5,92.8c2.1,0.2,3.2,2,4.3,5.7c1.1,3.7,0.8,5.3-1,5.3c-1.8,0-3.5-1.8-4.8-5.7
			C55.6,94.3,56.4,92.6,58.5,92.8z"/>
    </g>
  </g>
  <g>
    <path class="st4" d="M89.3,112.9h4.5v15.8h-3v-13h-3.3L89.3,112.9z"/>
  </g>
  <g>
    <path class="st3" d="M122.8,135.8h4.5v15.8h-3v-13H121L122.8,135.8z"/>
  </g>
  <g>
    <path class="st4" d="M139.8,135.8h4.5v15.8h-3v-13H138L139.8,135.8z"/>
  </g>
  <path class="st3" d="M107.8,112.8c3.8,0,6,2.8,6,7.9c0,5.1-2.1,7.9-6,7.9c-3.8,0-6-2.8-6-7.9C101.9,115.6,104,112.8,107.8,112.8z
	 M107.8,115.1c-2,0-3,1.7-3,5.6c0,3.9,1,5.6,3,5.6c2,0,3-1.8,3-5.6C110.8,116.9,109.9,115.1,107.8,115.1z"/>
  <path class="st3" d="M76.1,112.8c3.8,0,6,2.8,6,7.9c0,5.1-2.1,7.9-6,7.9c-3.8,0-6-2.8-6-7.9C70.2,115.6,72.3,112.8,76.1,112.8z
	 M76.1,115.1c-2,0-3,1.7-3,5.6c0,3.9,1,5.6,3,5.6c2,0,3-1.8,3-5.6C79.2,116.9,78.2,115.1,76.1,115.1z"/>
  <path class="st3" d="M62.8,112.8c3.8,0,6,2.8,6,7.9c0,5.1-2.1,7.9-6,7.9c-3.8,0-6-2.8-6-7.9C56.9,115.7,59,112.8,62.8,112.8z
	 M62.8,115.2c-2,0-3,1.7-3,5.6c0,3.9,1,5.6,3,5.6c2,0,3-1.8,3-5.6C65.9,116.9,64.9,115.2,62.8,115.2z"/>
  <g>
    <path class="st3" d="M120.8,112.8h4.5v15.8h-3v-13H119L120.8,112.8z"/>
  </g>
  <g>
    <path class="st3" d="M134.4,81.3l4.5,0.4v24.7h-3V85.6l-3.9-0.3L134.4,81.3z"/>
  </g>
  <g>
    <path class="st3" d="M137.8,112.8h4.5v15.8h-3v-13h-3.3L137.8,112.8z"/>
  </g>
  <path class="st3" d="M156.9,112.8c3.8,0,6,2.8,6,7.9c0,5.1-2.1,7.9-6,7.9c-3.8,0-6-2.8-6-7.9C150.9,115.6,153,112.8,156.9,112.8z
	 M156.9,115.1c-2,0-3,1.7-3,5.6c0,3.9,1,5.6,3,5.6c2,0,3-1.8,3-5.6C159.9,116.9,158.9,115.1,156.9,115.1z"/>
  <g>
    <path class="st4" d="M167.3,86.6l4.5,1v19.6h-3V90.6l-3.7-0.7L167.3,86.6z"/>
  </g>
  <g>
    <g>
      <path class="st3" d="M185.3,91.1l4.5,1v14.7h-3V94.8l-3.3-0.6L185.3,91.1z"/>
      <path class="st3" d="M185.3,91.1l4.5,1v14.7h-3V94.8l-3.3-0.6L185.3,91.1z"/>
    </g>
  </g>
  <g>
    <path class="st3" d="M216.3,95h4.5v11.5h-3V97h-3.3L216.3,95z"/>
  </g>
  <path class="st4" d="M252.2,112.8c3.8,0,6,2.8,6,7.9c0,5.1-2.1,7.9-6,7.9c-3.8,0-6-2.8-6-7.9C246.2,115.7,248.4,112.8,252.2,112.8z
	 M252.2,115.2c-2,0-3,1.7-3,5.6c0,3.9,1,5.6,3,5.6c2,0,3-1.8,3-5.6C255.2,116.9,254.2,115.2,252.2,115.2z"/>
  <path class="st3" d="M236,112.8c3.8,0,6,2.8,6,7.9c0,5.1-2.1,7.9-6,7.9c-3.8,0-6-2.8-6-7.9C230.1,115.6,232.2,112.8,236,112.8z
	 M236,115.1c-2,0-3,1.7-3,5.6c0,3.9,1,5.6,3,5.6c2,0,3-1.8,3-5.6C239,116.8,238.1,115.1,236,115.1z"/>
  <path class="st3" d="M219.9,112.8c3.8,0,6,2.8,6,7.9c0,5.1-2.1,7.9-6,7.9c-3.8,0-6-2.8-6-7.9C214,115.7,216.1,112.8,219.9,112.8z
	 M219.9,115.2c-2,0-3,1.7-3,5.6c0,3.9,1,5.6,3,5.6c2,0,3-1.8,3-5.6C222.9,116.9,221.9,115.2,219.9,115.2z"/>
  <path class="st3" d="M203.9,112.8c3.8,0,6,2.8,6,7.9c0,5.1-2.1,7.9-6,7.9c-3.8,0-6-2.8-6-7.9C197.9,115.7,200,112.8,203.9,112.8z
	 M203.9,115.2c-2,0-3,1.7-3,5.6c0,3.9,1,5.6,3,5.6c2,0,3-1.8,3-5.6C206.9,116.9,205.9,115.2,203.9,115.2z"/>
  <path class="st3" d="M187.9,112.8c3.8,0,6,2.8,6,7.9c0,5.1-2.1,7.9-6,7.9c-3.8,0-6-2.8-6-7.9C182,115.7,184.1,112.8,187.9,112.8z
	 M187.9,115.2c-2,0-3,1.7-3,5.6c0,3.9,1,5.6,3,5.6c2,0,3-1.8,3-5.6C191,116.9,190,115.2,187.9,115.2z"/>
  <g>
    <path class="st3" d="M169.5,112.8h4.5v15.8h-3v-13h-3.3L169.5,112.8z"/>
  </g>
  <g>
    <path class="st3" d="M265,112.8h4.5v15.8h-3v-13h-3.3L265,112.8z"/>
  </g>
  <path class="st3" d="M283.7,112.8c3.8,0,6,2.8,6,7.9s-2.1,7.9-6,7.9c-3.8,0-6-2.8-6-7.9S279.9,112.8,283.7,112.8z M283.7,115.1
	c-2,0-3,1.7-3,5.6c0,3.9,1,5.6,3,5.6c2,0,3-1.8,3-5.6C286.7,116.8,285.7,115.1,283.7,115.1z"/>
  <g>
    <g>
      <path class="st3" d="M291.7,116.9c0.7-1.4,1-2.1,1.8-3.4c4.7,5.8,7.1,8.9,11.9,15.4c-1.7,0.2-2.5,0.3-4.2,0.4
			c-2.9-4.5-4.4-6.8-7.3-11.2c-0.7,0.9-1.1,1.3-1.8,2.3C292,119.1,291.9,118.4,291.7,116.9z"/>
    </g>
  </g>
  <g>
    <path class="st3" d="M173,135.5h4.5v15.8h-3v-13h-3.3L173,135.5z"/>
  </g>
  <g>
    <path class="st3" d="M238.4,135.5h4.5v15.8h-3v-13h-3.3L238.4,135.5z"/>
  </g>
  <g>
    <path class="st3" d="M271.3,135.5h4.5v15.8h-3v-13h-3.3L271.3,135.5z"/>
  </g>
  <g>
    <path class="st3" d="M304.3,135.5h4.5v15.8h-3v-13h-3.3L304.3,135.5z"/>
  </g>
  <g>
    <path class="st3" d="M89.5,135.8H94v15.8h-3v-13h-3.3L89.5,135.8z"/>
  </g>
  <g>
    <path class="st3" d="M306,157.4h4.5v15.8h-3v-13h-3.3L306,157.4z"/>
  </g>
  <path class="st4" d="M239.7,157.3c3.8,0,6,2.8,6,7.9s-2.1,7.9-6,7.9c-3.8,0-6-2.8-6-7.9S235.8,157.3,239.7,157.3z M239.7,159.6
	c-2,0-3,1.7-3,5.6c0,3.9,1,5.6,3,5.6c2,0,3-1.8,3-5.6C242.7,161.4,241.7,159.6,239.7,159.6z"/>
  <path class="st4" d="M256.6,157.3c3.8,0,6,2.8,6,7.9s-2.1,7.9-6,7.9c-3.8,0-6-2.8-6-7.9S252.8,157.3,256.6,157.3z M256.6,159.6
	c-2,0-3,1.7-3,5.6c0,3.9,1,5.6,3,5.6c2,0,3-1.8,3-5.6C259.6,161.4,258.7,159.6,256.6,159.6z"/>
  <path class="st3" d="M292.2,157.3c3.8,0,6,2.8,6,7.9s-2.1,7.9-6,7.9c-3.8,0-6-2.8-6-7.9S288.4,157.3,292.2,157.3z M292.2,159.6
	c-2,0-3,1.7-3,5.6c0,3.9,1,5.6,3,5.6c2,0,3-1.8,3-5.6C295.2,161.4,294.2,159.6,292.2,159.6z"/>
  <g>
    <path class="st3" d="M272.3,157.4h4.5v15.8h-3v-13h-3.3L272.3,157.4z"/>
  </g>
  <path class="st3" d="M326,157.3c3.8,0,6,2.8,6,7.9s-2.1,7.9-6,7.9c-3.8,0-6-2.8-6-7.9S322.2,157.3,326,157.3z M326,159.6
	c-2,0-3,1.7-3,5.6c0,3.9,1,5.6,3,5.6c2,0,3-1.8,3-5.6C329,161.4,328,159.6,326,159.6z"/>
  <g>
    <path class="st3" d="M339.9,157.4h4.5v15.8h-3v-13h-3.3L339.9,157.4z"/>
  </g>
  <g>
    <path class="st3" d="M360,162c3.7,1.1,5.7,2.4,6,6.3c0.3,3.9-1.7,5.2-6,6.4c-4.2,1.2-6.2,0.2-6-6.1C354.3,162.3,356.3,161,360,162z
		 M360,163.9c-2-0.4-3,0.8-3.1,4.6c-0.1,3.7,0.9,4.9,3.1,4.4c2.2-0.5,3.2-1.7,3.1-4.6C363,165.5,362,164.3,360,163.9z"/>
  </g>
  <g>
    <g>
      <path class="st3" d="M374,166.6c0.8,0.4,1.3,0.7,2.1,1.1c0.8,3.2,0.9,4.8,0.6,7.7c-0.8,0.4-1.2,0.6-2,1c0.6-3.1,0.6-4.7,0.2-7.7
			c-0.6-0.2-0.9-0.3-1.6-0.5C373.7,167.4,373.8,167.1,374,166.6z"/>
    </g>
  </g>
  <path class="st3" d="M223.3,157.3c3.8,0,6,2.8,6,7.9s-2.1,7.9-6,7.9c-3.8,0-6-2.8-6-7.9S219.5,157.3,223.3,157.3z M223.3,159.6
	c-2,0-3,1.7-3,5.6c0,3.9,1,5.6,3,5.6c2,0,3-1.8,3-5.6C226.4,161.4,225.4,159.6,223.3,159.6z"/>
  <g>
    <path class="st3" d="M203.5,157.4h4.5v15.8h-3v-13h-3.3L203.5,157.4z"/>
  </g>
  <path class="st3" d="M189.3,157.3c3.8,0,6,2.8,6,7.9s-2.1,7.9-6,7.9c-3.8,0-6-2.8-6-7.9S185.5,157.3,189.3,157.3z M189.3,159.6
	c-2,0-3,1.7-3,5.6c0,3.9,1,5.6,3,5.6c2,0,3-1.8,3-5.6C192.3,161.4,191.3,159.6,189.3,159.6z"/>
  <g>
    <path class="st3" d="M168.5,157.4h4.5v15.8h-3v-13h-3.3L168.5,157.4z"/>
  </g>
  <g>
    <path class="st3" d="M152.1,157.4h4.5v15.8h-3v-13h-3.3L152.1,157.4z"/>
  </g>
  <path class="st3" d="M137.3,157.2c3.8,0,6,2.8,6,7.9s-2.1,7.9-6,7.9c-3.8,0-6-2.8-6-7.9S133.5,157.2,137.3,157.2z M137.3,159.5
	c-2,0-3,1.7-3,5.6c0,3.9,1,5.6,3,5.6c2,0,3-1.8,3-5.6C140.3,161.3,139.3,159.5,137.3,159.5z"/>
  <path class="st3" d="M121.1,157.2c3.8,0,6,2.8,6,7.9s-2.1,7.9-6,7.9c-3.8,0-6-2.8-6-7.9S117.3,157.2,121.1,157.2z M121.1,159.5
	c-2,0-3,1.7-3,5.6c0,3.9,1,5.6,3,5.6c2,0,3-1.8,3-5.6C124.1,161.3,123.2,159.5,121.1,159.5z"/>
  <path class="st3" d="M105.3,157.2c3.8,0,6,2.8,6,7.9c0,5.1-2.1,7.9-6,7.9c-3.8,0-6-2.8-6-7.9C99.4,160,101.5,157.2,105.3,157.2z
	 M105.3,159.5c-2,0-3,1.7-3,5.6c0,3.9,1,5.6,3,5.6c2,0,3-1.8,3-5.6C108.3,161.3,107.3,159.5,105.3,159.5z"/>
  <g>
    <path class="st3" d="M86.6,157.3h4.5v15.8h-3v-13h-3.3L86.6,157.3z"/>
  </g>
  <path class="st3" d="M73.7,157.3c3.8,0,6,2.8,6,7.9s-2.1,7.9-6,7.9c-3.8,0-6-2.8-6-7.9S69.9,157.3,73.7,157.3z M73.7,159.6
	c-2,0-3,1.7-3,5.6c0,3.9,1,5.6,3,5.6c2,0,3-1.8,3-5.6C76.7,161.4,75.8,159.6,73.7,159.6z"/>
  <g>
    <path class="st3" d="M62.3,156.5c2.8,1.2,5.3,4.7,4.2,9.4c-1.2,4.7-5,6.7-8,6.5c-2.9-0.2-1.9-2.8-0.6-8.6
		C59.3,158.1,59.6,155.3,62.3,156.5z M62.7,159c-1.4-0.5-1.6,1.2-2.6,5.4c-1,4.2-1.6,5.9-0.1,6c1.5,0.2,3.5-1.2,4.4-5
		C65.3,161.6,64.2,159.5,62.7,159z"/>
  </g>
  <g>
    <path class="st3" d="M332.6,179.3h4.5v15.8h-3v-13h-3.3L332.6,179.3z"/>
  </g>
  <g>
    <path class="st3" d="M300.1,179.3h4.5v15.8h-3v-13h-3.3L300.1,179.3z"/>
  </g>
  <g>
    <path class="st3" d="M268.1,179.3h4.5v15.8h-3v-13h-3.3L268.1,179.3z"/>
  </g>
  <g>
    <path class="st4" d="M133.2,179.3h4.5v15.8h-3v-13h-3.3L133.2,179.3z"/>
  </g>
  <g>
    <path class="st3" d="M117,179.4h4.5v15.8h-3v-13h-3.3L117,179.4z"/>
  </g>
  <g>
    <path class="st3" d="M169.8,179.4h4.5v3.6c-0.9-0.4-4.1-1.2-5.7-1.6L169.8,179.4z"/>
  </g>
  <g>
    <path class="st3" d="M89.3,179.4h4.5v10.3l-3,2v-9.4h-3.3L89.3,179.4z"/>
  </g>
  <g>
    <path class="st3" d="M327.8,201.9h4.5v15.8h-3v-13h-3.3L327.8,201.9z"/>
  </g>
  <g>
    <path class="st3" d="M297.2,201.9h4.5v3.5c-1.9-0.9-3.1-1.4-5.7-1.5L297.2,201.9z"/>
  </g>
  <g>
    <path class="st3" d="M143,210.2l-3,3.9v-9.3h-3.3l1.7-2.8h4.5V210.2"/>
  </g>
  <g>
    <path class="st3" d="M16.7,252.2c1,4.6,4.2,7.4,6.3,7.4c2.1,0,4.2-2.8,4.2-7.9c0-5.1-2.1-7.9-5.9-7.3
		C17.6,245,15.7,247.7,16.7,252.2z M24.4,251.8c0.1,3.8-0.5,5.6-1.8,5.6c-1.3,0-2.5-1.7-3.2-5.2c-0.7-3.5,0.1-5.3,2-5.5
		C23.4,246.3,24.3,248,24.4,251.8z"/>
  </g>
  <g>
    <path class="st3" d="M173.8,254.6c0.3,2.9,2.4,5.7,6.2,5.7c3.8,0,6,0.2,5.9-1.4c-0.2-1.6-1.7-5-5.6-7.3
		C176.5,249.2,173.5,251.7,173.8,254.6z M183.2,257.5c0,1.6-1.1,1.9-3.1,1.6c-2-0.3-3-1.6-3-3.7c0-2.1,1.2-3.2,3.2-2.2
		C182.4,254.2,183.3,255.9,183.2,257.5z"/>
  </g>
  <g>
    <path class="st3" d="M143.5,248.4c0,0.9,2,4.8,5.8,7.2c3.8,2.4,6.1,0.9,6.1-3.5c0-4.4-2.1-7.2-6-7.2
		C145.6,244.8,143.5,247.5,143.5,248.4z M152.3,251.1c0,2.7-1.1,3.6-3.1,2.4c-2-1.2-2.9-3-2.9-4.3c0-1.3,1-2.5,3-2.4
		C151.4,246.9,152.4,248.4,152.3,251.1z"/>
  </g>
  <g>
    <path class="st3" d="M240.4,251.2c2.8,5,6.1,7.4,7.5,7.4c1.4,0,3.4-2.8,3.3-7.6c-0.1-4.8-2.3-7.6-7.6-7.6
		C238.2,243.4,237.6,246.1,240.4,251.2z M248.3,251c0.4,3.7-0.1,5.4-1.1,5.4c-1,0-2.4-1.5-4.1-5.3c-1.8-3.8-1.5-5.5,1-5.5
		C246.6,245.6,247.9,247.3,248.3,251z"/>
  </g>
  <g>
    <path class="st3" d="M294.4,252.5c3.2,5.1,7.3,8.1,9.4,8.1c2.1,0,4.1-2.8,4.1-7.9c0-5.1-2.2-7.9-9.1-7.9
		C292.1,244.8,291.2,247.4,294.4,252.5z M304.7,252.6c0.4,3.9-0.2,5.7-1.7,5.6c-1.5,0-3.3-1.8-5.4-5.7c-2-3.9-1.4-5.6,1.9-5.5
		C302.8,247,304.4,248.8,304.7,252.6z"/>
  </g>
  <g>
    <path class="st3" d="M365.3,224.5h4.5v15.8h-3v-13h-3.3L365.3,224.5z"/>
  </g>
  <g>
    <path class="st3" d="M349.6,224.5h4.5v15.8h-3v-13h-3.3L349.6,224.5z"/>
  </g>
  <g>
    <path class="st4" d="M313.6,224.5h4.5v15.8h-3v-13h-3.3L313.6,224.5z"/>
  </g>
  <g>
    <path class="st3" d="M286,224.5h4.5v15.8h-3v-13h-3.3L286,224.5z"/>
  </g>
  <g>
    <path class="st3" d="M263.2,201.9h4.5v7.9c-0.9,0.1-1.9,0.2-3,0.3v-5.3h-3.3L263.2,201.9z"/>
  </g>
  <g>
    <g>
      <path class="st3" d="M137.8,225.4c1.7,1.5,2.6,2.2,4.3,3.7c0.1,4.2,0.3,12.7,0.3,13c0,0.2-1.8,0.2-3.1,0.2c0-5.1,0-7.7,0-12.8
			c-1.3-0.7-1.9-1-3.2-1.7C136.7,226.6,137.1,226.1,137.8,225.4z"/>
    </g>
  </g>
  <g>
    <path class="st3" d="M162.9,247.2c1,1.3,2.5,1.9,4.5,1.6v11.7h-3v-8.2l-4-1L162.9,247.2z"/>
  </g>
  <g>
    <g>
      <path class="st3" d="M57.7,136.6c1.6-1,2.5-1.6,4.1-2.6c-1.2,7.6-1.2,11.7,0.6,19.8c-1.3-0.8-2-1.2-3.3-2.1
			c-0.3-5.2-0.3-7.9-0.1-13.1c-1,0.5-1.6,0.7-2.6,1.2C56.9,138.7,57.1,138,57.7,136.6z"/>
    </g>
  </g>
  <g>
    <g>
      <g>
        <path class="st3" d="M43.9,48.2c2-0.9,2.9-0.9,4.2-0.2c-3.3,6.8-4.6,10.3-6.5,17.2c-1.5,0.6-2.2,0.7-3.4,0.4
				c2.4-6,3.5-8.9,5.9-14.8c-1.2,0.1-1.8,0.4-3.3,1.1C42.1,50.6,42.7,49.8,43.9,48.2z"/>
      </g>
    </g>
  </g>
  <g>
    <path class="st3" d="M357.6,248.3h4.5v11.3c-1-0.1-2-0.3-3-0.6v-7.8h-3.3L357.6,248.3z"/>
  </g>
  <g>
    <path class="st3" d="M388.6,248.1h4.5v6.7c-1,0.3-2.4,0.2-3,0.1v-4h-3.3L388.6,248.1z"/>
  </g>
  <g>
    <path class="st3" d="M369.7,254.1c-0.2,5.5,1.5,5.5,5.9,4.1c4.4-1.4,6.2-1.6,6-4.3c-0.2-2.7-2.3-5-5.9-6.2
		C372.1,246.5,369.9,248.7,369.7,254.1z M372.5,253.3c0.1-3.2,1.2-4.5,3.1-4.1c2,0.5,3,1.8,3.1,3.9c0.1,2.2-0.9,3-3.2,3.5
		C373.4,257.2,372.4,256.5,372.5,253.3z"/>
  </g>
  <path class="st3" d="M290.5,135.4c3.8,0,6,2.8,6,7.9s-2.1,7.9-6,7.9c-3.8,0-6-2.8-6-7.9S286.7,135.4,290.5,135.4z M290.5,137.8
	c-2,0-3,1.7-3,5.6c0,3.9,1,5.6,3,5.6c2,0,3-1.8,3-5.6C293.5,139.5,292.6,137.8,290.5,137.8z"/>
  <path class="st3" d="M257.5,135.4c3.8,0,6,2.8,6,7.9s-2.1,7.9-6,7.9c-3.8,0-6-2.8-6-7.9S253.7,135.4,257.5,135.4z M257.5,137.8
	c-2,0-3,1.7-3,5.6c0,3.9,1,5.6,3,5.6c2,0,3-1.8,3-5.6C260.6,139.5,259.6,137.8,257.5,137.8z"/>
  <path class="st3" d="M224.4,135.4c3.8,0,6,2.8,6,7.9s-2.1,7.9-6,7.9c-3.8,0-6-2.8-6-7.9S220.5,135.4,224.4,135.4z M224.4,137.8
	c-2,0-3,1.7-3,5.6c0,3.9,1,5.6,3,5.6c2,0,3-1.8,3-5.6C227.4,139.5,226.4,137.8,224.4,137.8z"/>
  <path class="st3" d="M208.4,135.4c3.8,0,6,2.8,6,7.9s-2.1,7.9-6,7.9c-3.8,0-6-2.8-6-7.9S204.5,135.4,208.4,135.4z M208.4,137.8
	c-2,0-3,1.7-3,5.6c0,3.9,1,5.6,3,5.6c2,0,3-1.8,3-5.6C211.4,139.5,210.4,137.8,208.4,137.8z"/>
  <path class="st3" d="M192.4,135.4c3.8,0,6,2.8,6,7.9s-2.1,7.9-6,7.9c-3.8,0-6-2.8-6-7.9S188.5,135.4,192.4,135.4z M192.4,137.8
	c-2,0-3,1.7-3,5.6c0,3.9,1,5.6,3,5.6c2,0,3-1.8,3-5.6C195.4,139.5,194.4,137.8,192.4,137.8z"/>
  <path class="st3" d="M158.8,135.4c3.8,0,6,2.8,6,7.9s-2.1,7.9-6,7.9c-3.8,0-6-2.8-6-7.9S155,135.4,158.8,135.4z M158.8,137.8
	c-2,0-3,1.7-3,5.6c0,3.9,1,5.6,3,5.6c2,0,3-1.8,3-5.6C161.8,139.5,160.8,137.8,158.8,137.8z"/>
  <path class="st3" d="M108.8,135.4c3.8,0,6,2.8,6,7.9s-2.1,7.9-6,7.9c-3.8,0-6-2.8-6-7.9S105,135.4,108.8,135.4z M108.8,137.8
	c-2,0-3,1.7-3,5.6c0,3.9,1,5.6,3,5.6c2,0,3-1.8,3-5.6C111.8,139.5,110.8,137.8,108.8,137.8z"/>
  <path class="st3" d="M75,135.4c3.8,0,6,2.8,6,7.9s-2.1,7.9-6,7.9c-3.8,0-6-2.8-6-7.9S71.2,135.4,75,135.4z M75,137.8
	c-2,0-3,1.7-3,5.6c0,3.9,1,5.6,3,5.6c2,0,3-1.8,3-5.6C78.1,139.5,77.1,137.8,75,137.8z"/>
  <g>
    <path class="st3" d="M33.7,251.3c1.2,0.1,2.3,0.4,3.5,1v8.4l-3,0v-5.5l-2.6-0.6L33.7,251.3z"/>
  </g>
  <g>
    <path class="st3" d="M256.5,251.3c1.3-0.1,2,0.2,3.1,0.8v7.8h-3v-5.4l-2.3-0.3L256.5,251.3z"/>
  </g>
  <g>
    <path class="st3" d="M324.1,245.4h4.5v8.7c-1,0-2-0.1-3-0.1v-5.7h-3.3L324.1,245.4z"/>
  </g>
  <g>
    <path class="st3" d="M319.6,139.2c4,3.7,5.4,8.2,1.8,10.4c-3.6,2.2-6.3-0.6-8.7-5.2c-2.4-4.6-2.6-7.2-1.1-8.4
		C313,134.7,315.5,135.5,319.6,139.2z M314.7,143.8c2.2,3.5,3.5,4.8,5.2,3.7c1.7-1.1,1-3.3-1.7-6.4c-2.8-3.1-4.3-4-5.3-3.2
		C312,138.7,312.6,140.4,314.7,143.8z"/>
  </g>
</svg>
